#define ff_width 15
#define ff_height 12
static char ff_bits[] = {
   0x00, 0x00, 0x04, 0x01, 0x0c, 0x03, 0x1c, 0x07, 0x3c, 0x0f, 0x7c, 0x1f,
   0x7c, 0x1f, 0x3c, 0x0f, 0x1c, 0x07, 0x0c, 0x03, 0x04, 0x01, 0x00, 0x00};
