#define rewind_width 15
#define rewind_height 12
static char rewind_bits[] = {
   0x00, 0x00, 0x40, 0x10, 0x60, 0x18, 0x70, 0x1c, 0x78, 0x1e, 0x7c, 0x1f,
   0x7c, 0x1f, 0x78, 0x1e, 0x70, 0x1c, 0x60, 0x18, 0x40, 0x10, 0x00, 0x00};
