#define stop_width 14
#define stop_height 12
static char stop_bits[] = {
   0x00, 0x00, 0x38, 0x07, 0x38, 0x07, 0x38, 0x07, 0x38, 0x07, 0x38, 0x07,
   0x38, 0x07, 0x38, 0x07, 0x38, 0x07, 0x38, 0x07, 0x38, 0x07, 0x00, 0x00};
